<svg width="93" height="12" viewBox="0 0 93 12" fill="none" xmlns="http://www.w3.org/2000/svg">
<path d="M32 2.89362H34.7915V4.03404C35.0525 3.5234 35.3816 3.15461 35.7787 2.92766C36.1872 2.68936 36.6298 2.57021 37.1064 2.57021C37.7645 2.57021 38.383 2.76312 38.9617 3.14894C39.5404 3.53475 39.966 4.09645 40.2383 4.83404C40.4426 4.05106 40.7773 3.47801 41.2426 3.11489C41.7191 2.75177 42.2525 2.57021 42.8426 2.57021C43.4213 2.57021 43.9716 2.7234 44.4936 3.02979C45.0156 3.32482 45.4411 3.77305 45.7702 4.37447C46.0993 4.97589 46.2638 5.71348 46.2638 6.58723V11.6766H43.5404V7.01277C43.5404 5.57163 42.9957 4.85106 41.9064 4.85106C41.7589 4.85106 41.583 4.89645 41.3787 4.98723C41.1858 5.07801 41.0043 5.23688 40.834 5.46383C40.6638 5.69078 40.5617 5.99149 40.5277 6.36596V11.6766H37.8043V7.01277C37.8043 5.57163 37.2596 4.85106 36.1702 4.85106C36.0227 4.85106 35.8468 4.89645 35.6426 4.98723C35.4496 5.07801 35.2681 5.23688 35.0979 5.46383C34.939 5.67943 34.8369 5.96879 34.7915 6.33191V11.6766H32V2.89362Z" fill="white"/>
<path d="M52.2763 12C51.3004 12 50.4493 11.8071 49.7231 11.4213C49.0082 11.0241 48.4578 10.4738 48.072 9.77021C47.6862 9.05532 47.4933 8.22695 47.4933 7.28511C47.4933 6.35461 47.6862 5.53192 48.072 4.81702C48.4578 4.10213 49.0025 3.55177 49.7061 3.16596C50.4209 2.76879 51.2493 2.57021 52.1912 2.57021C53.5982 2.57021 54.6819 2.99007 55.4422 3.82979C56.2025 4.65816 56.5883 5.8156 56.5997 7.30213V8.28936H50.3188C50.4096 8.83404 50.6025 9.22553 50.8975 9.46383C51.2039 9.70213 51.6578 9.82128 52.2592 9.82128C52.7358 9.82128 53.0819 9.73617 53.2975 9.56596C53.5245 9.39575 53.7004 9.10638 53.8252 8.69787L56.4975 9.44681C56.1231 10.3433 55.6068 10.9957 54.9486 11.4043C54.3018 11.8014 53.411 12 52.2763 12ZM53.8763 6.53617C53.8195 5.9461 53.655 5.4922 53.3826 5.17447C53.1217 4.84539 52.7075 4.68085 52.1401 4.68085C51.5273 4.68085 51.0791 4.82837 50.7954 5.1234C50.5117 5.41844 50.3415 5.88936 50.2848 6.53617H53.8763Z" fill="white"/>
<path d="M58.1049 0H61.0326V11.6766H58.1049V0Z" fill="white"/>
<path d="M67.3075 12C66.3316 12 65.4806 11.8071 64.7543 11.4213C64.0394 11.0241 63.4891 10.4738 63.1033 9.77021C62.7174 9.05532 62.5245 8.22695 62.5245 7.28511C62.5245 6.35461 62.7174 5.53192 63.1033 4.81702C63.4891 4.10213 64.0338 3.55177 64.7373 3.16596C65.4522 2.76879 66.2806 2.57021 67.2224 2.57021C68.6295 2.57021 69.7132 2.99007 70.4735 3.82979C71.2338 4.65816 71.6196 5.8156 71.6309 7.30213V8.28936H65.3501C65.4408 8.83404 65.6338 9.22553 65.9288 9.46383C66.2352 9.70213 66.6891 9.82128 67.2905 9.82128C67.7671 9.82128 68.1132 9.73617 68.3288 9.56596C68.5557 9.39575 68.7316 9.10638 68.8564 8.69787L71.5288 9.44681C71.1543 10.3433 70.638 10.9957 69.9799 11.4043C69.333 11.8014 68.4423 12 67.3075 12ZM68.9075 6.53617C68.8508 5.9461 68.6862 5.4922 68.4139 5.17447C68.1529 4.84539 67.7387 4.68085 67.1713 4.68085C66.5586 4.68085 66.1104 4.82837 65.8267 5.1234C65.543 5.41844 65.3728 5.88936 65.316 6.53617H68.9075Z" fill="white"/>
<path d="M77.3234 12C76.3929 12 75.5816 11.8071 74.8894 11.4213C74.1972 11.0241 73.6638 10.4738 73.2894 9.77021C72.9149 9.05532 72.7277 8.22695 72.7277 7.28511C72.7277 6.34326 72.9149 5.52057 73.2894 4.81702C73.6638 4.10213 74.1972 3.55177 74.8894 3.16596C75.5816 2.76879 76.3929 2.57021 77.3234 2.57021C78.2312 2.57021 79.0255 2.76879 79.7064 3.16596C80.3986 3.56312 80.9262 4.11915 81.2894 4.83404C81.6638 5.54894 81.8511 6.37731 81.8511 7.31915C81.8511 8.24965 81.6638 9.07234 81.2894 9.78723C80.9262 10.4908 80.3986 11.0355 79.7064 11.4213C79.0255 11.8071 78.2312 12 77.3234 12ZM77.3064 9.68511C77.9305 9.68511 78.3901 9.46383 78.6851 9.02128C78.9801 8.56738 79.1277 7.98865 79.1277 7.28511C79.1277 6.58156 78.9801 6.00851 78.6851 5.56596C78.4014 5.1234 77.9418 4.90213 77.3064 4.90213C76.6482 4.90213 76.1716 5.1234 75.8766 5.56596C75.5816 6.00851 75.434 6.58156 75.434 7.28511C75.434 7.98865 75.5816 8.56738 75.8766 9.02128C76.183 9.46383 76.6596 9.68511 77.3064 9.68511Z" fill="white"/>
<path d="M83.2188 2.89362H85.7549V4.39149C86.0046 3.76738 86.3677 3.31348 86.8443 3.02979C87.3209 2.73475 87.8769 2.58723 88.5124 2.58723C89.1478 2.58723 89.7492 2.74043 90.3166 3.04681C90.8953 3.34184 91.3663 3.79007 91.7294 4.39149C92.0925 4.99291 92.2741 5.7305 92.2741 6.60426V11.6936H89.5507V7.02979C89.5507 6.30355 89.3805 5.76454 89.04 5.41277C88.7109 5.04965 88.2514 4.86809 87.6613 4.86809C87.1507 4.86809 86.7081 5.02695 86.3336 5.34468C85.9592 5.66241 85.7663 6.15035 85.7549 6.80851V11.6766H83.2188V2.89362Z" fill="white"/>
<path d="M7.01277 7.35319H2.8766V11.6766H0V0H2.8766V4.93617H7.01277V0H9.90638V11.6766H7.01277V7.35319Z" fill="url(#paint0_linear_13_8)"/>
<path d="M20.466 11.6766H17.9299V10.1787C17.6802 10.8028 17.3171 11.2624 16.8405 11.5574C16.3639 11.8411 15.8079 11.983 15.1724 11.983C14.5369 11.983 13.9299 11.8355 13.3511 11.5404C12.7838 11.234 12.3185 10.7801 11.9554 10.1787C11.5923 9.57731 11.4107 8.83972 11.4107 7.96596V2.8766H14.1341V7.54043C14.1341 8.26667 14.2986 8.81135 14.6277 9.17447C14.9682 9.52624 15.4334 9.70213 16.0235 9.70213C16.5341 9.70213 16.9767 9.54326 17.3511 9.22553C17.7256 8.9078 17.9185 8.41986 17.9299 7.7617V2.89362H20.466V11.6766Z" fill="url(#paint1_linear_13_8)"/>
<path d="M26.6044 12C25.6285 12 24.7774 11.8071 24.0512 11.4213C23.3363 11.0241 22.7859 10.4738 22.4001 9.77021C22.0143 9.05532 21.8214 8.22695 21.8214 7.28511C21.8214 6.35461 22.0143 5.53192 22.4001 4.81702C22.7859 4.10213 23.3306 3.55177 24.0342 3.16596C24.7491 2.76879 25.5774 2.57021 26.5193 2.57021C27.9264 2.57021 29.0101 2.99007 29.7703 3.82979C30.5306 4.65816 30.9164 5.8156 30.9278 7.30213V8.28936H24.6469C24.7377 8.83404 24.9306 9.22553 25.2257 9.46383C25.532 9.70213 25.9859 9.82128 26.5874 9.82128C27.064 9.82128 27.4101 9.73617 27.6257 9.56596C27.8526 9.39575 28.0285 9.10638 28.1533 8.69787L30.8257 9.44681C30.4512 10.3433 29.9349 10.9957 29.2767 11.4043C28.6299 11.8014 27.7391 12 26.6044 12ZM28.2044 6.53617C28.1477 5.9461 27.9831 5.4922 27.7108 5.17447C27.4498 4.84539 27.0356 4.68085 26.4682 4.68085C25.8555 4.68085 25.4072 4.82837 25.1235 5.1234C24.8398 5.41844 24.6696 5.88936 24.6129 6.53617H28.2044Z" fill="url(#paint2_linear_13_8)"/>
<defs>
<linearGradient id="paint0_linear_13_8" x1="-1" y1="3.29129e-07" x2="29" y2="14" gradientUnits="userSpaceOnUse">
<stop stop-color="#E11D48"/>
<stop offset="0.5" stop-color="#D946EF"/>
<stop offset="1" stop-color="#3B82F6"/>
</linearGradient>
<linearGradient id="paint1_linear_13_8" x1="-1" y1="3.29129e-07" x2="29" y2="14" gradientUnits="userSpaceOnUse">
<stop stop-color="#E11D48"/>
<stop offset="0.5" stop-color="#D946EF"/>
<stop offset="1" stop-color="#3B82F6"/>
</linearGradient>
<linearGradient id="paint2_linear_13_8" x1="-1" y1="3.29129e-07" x2="29" y2="14" gradientUnits="userSpaceOnUse">
<stop stop-color="#E11D48"/>
<stop offset="0.5" stop-color="#D946EF"/>
<stop offset="1" stop-color="#3B82F6"/>
</linearGradient>
</defs>
</svg>
