<svg width="597" height="636" viewBox="0 0 597 636" fill="none" xmlns="http://www.w3.org/2000/svg">
<path fill-rule="evenodd" clip-rule="evenodd" d="M300.878 0C308.805 0 314.554 7.54956 312.446 15.1912L285.069 114.434C284.782 115.473 284.601 116.552 284.745 117.621C285.536 123.482 290.559 128 296.637 128H397.267C405.074 128 410.802 135.337 408.909 142.91L382.909 246.91C381.573 252.252 376.774 256 371.267 256H264.637C258.559 256 253.536 260.518 252.745 266.379C252.601 267.448 252.491 268.527 252.204 269.566L223.067 375.191C221.631 380.395 216.897 384 211.499 384H108.395C100.468 384 94.7192 376.45 96.8272 368.809L124.204 269.566C124.491 268.527 124.672 267.448 124.528 266.379C123.737 260.518 118.714 256 112.637 256H12.0058C4.19907 256 -1.52932 248.663 0.364236 241.09L26.3642 137.09C27.6997 131.748 32.4995 128 38.0058 128H144.637C150.714 128 155.737 123.482 156.528 117.621C156.552 117.445 156.575 117.268 156.598 117.091C156.713 116.197 156.829 115.302 157.069 114.434L186.207 8.80884C187.642 3.60474 192.376 0 197.775 0H300.878ZM156.77 138.202C157.638 132.427 162.62 128 168.637 128H272.637C278.653 128 283.635 132.427 284.503 138.202C284.681 139.385 284.458 140.581 284.106 141.725L253.167 242.275C252.874 243.229 252.731 244.219 252.589 245.207C252.561 245.404 252.532 245.601 252.503 245.798C251.635 251.573 246.653 256 240.637 256H136.637C130.62 256 125.638 251.573 124.77 245.798C124.593 244.615 124.815 243.419 125.167 242.275L156.106 141.725C156.399 140.771 156.542 139.781 156.684 138.793C156.712 138.596 156.741 138.399 156.77 138.202Z" fill="#111111"/>
<path fill-rule="evenodd" clip-rule="evenodd" d="M487.878 252C495.805 252 501.554 259.55 499.446 267.191L472.069 366.434C471.782 367.473 471.601 368.552 471.745 369.621C472.536 375.482 477.559 380 483.637 380H584.267C592.074 380 597.802 387.337 595.909 394.91L569.909 498.91C568.573 504.252 563.774 508 558.267 508H451.637C445.559 508 440.536 512.518 439.745 518.379C439.601 519.448 439.491 520.527 439.204 521.566L410.067 627.191C408.631 632.395 403.897 636 398.499 636H295.395C287.468 636 281.719 628.45 283.827 620.809L311.204 521.566C311.491 520.527 311.672 519.448 311.528 518.379C310.737 512.518 305.714 508 299.637 508H199.006C191.199 508 185.471 500.663 187.364 493.09L213.364 389.09C214.7 383.748 219.499 380 225.006 380H331.637C337.714 380 342.737 375.482 343.528 369.621C343.552 369.445 343.575 369.268 343.598 369.091C343.713 368.197 343.829 367.302 344.069 366.434L373.207 260.809C374.642 255.605 379.376 252 384.775 252H487.878ZM343.77 390.202C344.638 384.427 349.62 380 355.637 380H459.637C465.653 380 470.635 384.427 471.503 390.202C471.681 391.385 471.458 392.581 471.106 393.725L440.167 494.275C439.815 495.419 439.681 496.615 439.503 497.798C438.635 503.573 433.653 508 427.637 508H323.637C317.62 508 312.638 503.573 311.77 497.798C311.593 496.615 311.815 495.419 312.167 494.275L343.106 393.725C343.399 392.771 343.542 391.781 343.684 390.793C343.712 390.596 343.741 390.399 343.77 390.202Z" fill="#111111"/>
</svg>
