<svg width="128" height="128" viewBox="0 0 128 128" fill="none" xmlns="http://www.w3.org/2000/svg">
<g clip-path="url(#clip0_52_11)">
<path d="M67.4091 37.0441C68.2018 36.5488 68.3249 35.6675 68.7046 34.9595C70.8574 30.9575 73.5798 27.4385 77.3766 24.8234C84.8219 19.6965 93.5419 20.3859 100.046 26.6521C104.191 30.6458 106.576 35.6097 107.857 41.1205C109.989 50.2948 109.144 59.209 105.266 67.8096C103.543 71.632 101.162 75.0107 97.9749 77.7991C89.5908 85.1324 78.7993 84.3357 71.6043 75.8528C71.016 75.1573 70.4548 74.439 69.902 73.7538C68.957 73.8157 68.9027 74.6165 68.6107 75.1408C67.261 77.5453 65.6651 79.7579 63.6687 81.6773C57.2497 87.8445 48.4525 89.4605 40.2395 85.9663C35.9254 84.1314 32.258 81.3843 29.3896 77.7414C20.3901 66.3132 17.8263 53.5703 21.8441 39.6158C22.979 35.6716 24.9921 32.1402 27.7395 29.0463C34.4359 21.5066 44.3387 19.5087 53.4822 23.8657C58.6787 26.3404 62.6235 30.1918 65.8153 34.877C66.3139 35.6076 66.6038 36.5034 67.4112 37.0462L67.4091 37.0441ZM46.4228 38.3444C43.0078 39.5807 40.1039 41.042 37.1354 42.3609C36.2926 42.7365 35.4623 43.1266 34.7551 43.7252C32.9005 45.2938 32.3018 47.7066 33.2385 49.7912C34.171 51.8675 36.3969 53.0646 38.798 52.7612C39.9767 52.6126 41.076 52.1895 42.1045 51.6322C44.3784 50.398 46.6355 49.1328 48.8802 47.8469C51.1144 46.5652 51.0998 46.5487 52.0678 49.0337C54.4773 55.2297 55.5307 61.6321 55.0822 68.2678C54.7735 72.8209 53.4697 77.0417 50.8996 80.8579C50.4052 81.5927 49.9462 82.3523 49.335 83.3141C51.8508 83.5039 53.8806 82.8559 55.8249 81.9374C59.9992 79.9663 62.8634 76.697 64.9808 72.7074C65.4815 71.7621 65.711 70.6 66.6477 69.9767C67.5322 69.3864 67.261 68.7755 66.9877 68.0634C64.0922 60.5073 63.508 52.7695 65.2228 44.8789C65.4314 43.9213 65.3543 43.1019 64.9558 42.2453C62.9406 37.8986 60.2641 34.0328 56.555 30.9224C53.8306 28.6376 50.7827 26.9225 47.2447 26.2744C43.4918 25.5871 39.816 25.7584 36.0339 27.9833C40.3584 30.6851 43.4959 34.1546 46.4228 38.3444ZM93.0266 46.9821C95.7427 58.2018 93.8465 68.4845 87.2856 78.1892C89.4489 78.1603 90.9259 77.3946 92.3528 76.567C95.3839 74.8126 97.6849 72.3069 99.4915 69.3679C103.632 62.6249 105.103 55.2524 104.502 47.4548C104.15 42.8666 102.979 38.4807 100.66 34.4497C98.9762 31.5251 96.84 29.0009 93.8152 27.3497C89.7869 25.1495 85.7544 25.1949 81.5613 27.3353C81.9785 28.134 82.5939 28.4271 83.08 28.8378C85.6605 31.0174 87.6882 33.6324 89.2591 36.5942C89.9767 37.944 89.9204 38.0142 88.5102 38.5013C87.1688 38.9657 85.8107 39.3909 84.484 39.8924C83.0028 40.4538 81.482 40.9595 80.1845 41.9027C78.0003 43.4878 77.2514 46.0451 78.2965 48.2638C79.302 50.4 81.6176 51.4465 84.2002 50.9449C85.454 50.7014 86.543 50.076 87.6674 49.527C89.3801 48.689 90.9864 47.6261 93.0224 46.9842L93.0266 46.9821ZM40.6505 69.9561C43.11 69.9148 45.0271 67.9148 44.9812 65.4339C44.9374 63.0336 43.0662 61.2152 40.6546 61.2297C38.1909 61.2441 36.3072 63.2173 36.3468 65.7415C36.3844 68.1625 38.2577 69.9953 40.6505 69.9561ZM86.4699 61.242C86.4199 58.9779 84.5528 57.2132 82.2685 57.271C79.9425 57.3288 78.0691 59.3473 78.1901 61.6693C78.3028 63.8282 80.101 65.5413 82.2581 65.5454C84.5695 65.5475 86.5221 63.5516 86.4699 61.242Z" fill="#425BFF"/>
<path d="M59.5048 116.994C51.7987 117.279 41.1595 108.476 44.8728 97.578C45.7635 94.963 46.4311 94.4202 49.2286 94.4388C58.758 94.5027 68.2853 94.3479 77.8084 94.0115C78.8097 93.9764 79.809 93.8526 80.8103 93.8299C82.6482 93.7865 83.6829 94.4924 83.7747 95.7948C83.8685 97.1178 82.9569 97.9454 81.1211 98.1023C79.373 98.2509 77.6206 98.3396 75.8683 98.4305C74.94 98.4779 74.5624 98.8598 74.6291 99.836C74.7063 100.986 74.6563 102.154 74.5645 103.306C73.8844 111.826 68.1413 117.037 59.5069 116.998L59.5048 116.994ZM68.3645 108.567C70.2504 105.871 70.1878 102.957 70.3839 100.08C70.4736 98.7772 69.8895 98.5626 68.7838 98.5873C65.7798 98.6554 62.7737 98.6699 59.7676 98.6823C56.6781 98.6947 53.5886 98.7215 50.5011 98.6575C49.3371 98.6327 48.7863 99.1343 48.6695 100.185C48.5005 101.712 48.0875 103.283 49.1326 104.697C55.5891 101.758 61.691 101.83 68.3645 108.567Z" fill="#425BFF"/>
<path d="M93.7922 17.4694C90.4669 17.1 87.5526 16.8544 84.6634 16.4354C79.3333 15.6635 74.9984 17.4921 71.308 21.1763C70.8407 21.6448 70.3922 22.1546 69.8519 22.5241C69.0905 23.0442 68.254 23.0008 67.5259 22.4167C66.8166 21.8471 66.5663 21.0979 66.8333 20.2021C67.0544 19.4632 67.5196 18.8812 68.0474 18.3466C72.0736 14.2723 76.8029 11.81 82.7337 12.0123C86.2509 12.132 89.7118 12.6996 93.1893 13.133C93.5147 13.1743 93.8423 13.2816 94.1468 13.4096C95.3693 13.9215 95.9492 14.8771 95.6488 15.9215C95.3255 17.0422 94.4493 17.4281 93.7922 17.4694Z" fill="#425BFF"/>
<path d="M45.1836 12.6171C49.335 12.6769 52.7854 13.7729 55.9271 15.8245C56.7657 16.3735 57.5334 17.0195 58.0508 17.8967C58.6203 18.8585 58.6224 19.8162 57.7837 20.6149C56.9389 21.4178 55.9834 21.3414 55.0405 20.7346C54.9007 20.6459 54.7797 20.5282 54.6567 20.4147C50.9392 17.0319 46.5583 16.4478 41.8062 17.4302C39.4343 17.9214 37.1082 18.5695 34.8302 19.393C34.3608 19.5623 33.8894 19.7666 33.4012 19.8409C32.4917 19.9813 31.7594 19.6221 31.2859 18.8358C30.7956 18.0226 30.9688 17.2424 31.5195 16.5303C31.8804 16.0618 32.3686 15.7378 32.9277 15.5314C37.0102 14.0309 41.1741 12.873 45.1794 12.615L45.1836 12.6171Z" fill="#425BFF"/>
<path d="M73.9219 84.7732C73.899 87.1571 71.7545 89.801 69.37 90.3892C68.085 90.7071 66.9001 90.22 66.414 89.1736C65.9071 88.0859 66.3201 87.1963 67.7011 86.3975C69.4514 85.3841 69.4597 85.3821 69.03 83.1654C68.8235 82.0983 68.9695 81.1798 70.0522 80.6473C71.0097 80.1767 72.1237 80.5276 72.9081 81.5142C73.4818 82.2345 73.9324 83.6855 73.9219 84.7732Z" fill="#425BFF"/>
</g>
<defs>
<clipPath id="clip0_52_11">
<rect width="89" height="105" fill="white" transform="translate(20 12)"/>
</clipPath>
</defs>
</svg>
